# vtk DataFile Version 2.0
pd_stretch_demo_mesh_init, Created by Gmsh
ASCII
DATASET UNSTRUCTURED_GRID
POINTS 194 double
0.10023176 0.10023124 0
0.10000807 0.10667531 0
0.0999988 0.11333099 0
0.10000204 0.12000186 0
0.09999912 0.12666766 0
0.09999879 0.133333 0
0.10000024 0.13999876 0
0.10000156 0.14666538 0
0.10000096 0.15333328 0
0.09999875 0.16000175 0
0.09999744000000001 0.16666898 0
0.09999959999999999 0.17333313 0
0.10000572 0.17999427 0
0.09999793 0.18666914 0
0.10000395 0.19332909 0
0.10021572 0.19978419 0
0.1066731 0.19999454 0
0.11333107 0.20000044 0
0.12000138 0.19999834 0
0.1266682 0.20000143 0
0.13333344 0.2000013 0
0.13999845 0.19999924 0
0.14666451 0.19999765 0
0.15333283 0.1999988 0
0.1600025 0.20000208 0
0.16667051 0.20000399 0
0.17333377 0.2000009 0
0.17999162 0.19999174 0
0.18666455 0.19999758 0
0.19335395 0.2000206 0
0.19980674 0.19980723 0
0.19999301 0.19333124 0
0.20000541 0.18666487 0
0.19999331 0.17999443 0
0.19999529 0.17333882 0
0.20000083 0.16667109 0
0.20000599 0.15999714 0
0.20000724 0.15332507 0
0.20000158 0.14666218 0
0.19999235 0.14000579 0
0.19998717 0.13334648 0
0.19999371 0.12667472 0
0.20001456 0.11998655 0
0.20002453 0.11330828 0
0.19998913 0.10667638 0
0.19980571 0.1001954 0
0.19332607 0.10000565 0
0.18667012 0.09999893 0
0.17999165 0.10000791 0
0.1733324 0.09999759 0
0.16666975 0.09999595 0
0.16000346 0.09999971000000001 0
0.15333479 0.10000349 0
0.14666503 0.10000242 0
0.13999602 0.0999978 0
0.13332998 0.0999951 0
0.12666912 0.09999985 0
0.12001037 0.10001083 0
0.11332202 0.09999028 0
0.10670694 0.10003929 0
0.11429333 0.11665949 0
0.11427704 0.16999642 0
0.11000656 0.18999008 0
0.16999756 0.11427208 0
0.18998799 0.11000296 0
0.16334059 0.18571624 0
0.18334059 0.18569733 0
0.11298371 0.13000098 0
0.10830579 0.11001471 0
0.123357 0.11046597 0
0.13666153 0.18571991 0
0.10830482 0.17665608 0
0.10830134 0.163337 0
0.16334128 0.10829775 0
0.17664917 0.10829925 0
0.18569561 0.12999658 0
0.18571113 0.15665842 0
0.16999829 0.1916965 0
0.15667175 0.19169088 0
0.1918377 0.18334445 0
0.11290612 0.14332951 0
0.10777399 0.12333817 0
0.13665766 0.11314936 0
0.13000066 0.19169616 0
0.1433295 0.19169125 0
0.19167583 0.12330468 0
0.1916668 0.13668262 0
0.19169077 0.16332769 0
0.19169544 0.15000068 0
0.19003711 0.19191517 0
0.10774703 0.15000004 0
0.10774356 0.1366642 0
0.14332509 0.10784233 0
0.1061533 0.1699971 0
0.16999547 0.10614749 0
0.17333641 0.18128416 0
0.16333411 0.19384391 0
0.12297513 0.15618056 0
0.1061192 0.11659978 0
0.12077697 0.18183311 0
0.13666587 0.19384128 0
0.14999993 0.17753403 0
0.15000068 0.19383472 0
0.14893945 0.18568442 0
0.18057924 0.11940627 0
0.19380681 0.12999509 0
0.17749224 0.14333228 0
0.18450677 0.17338934 0
0.1938467 0.15666494 0
0.19383668 0.14333701 0
0.18566416 0.14438678 0
0.18271176 0.19308952 0
0.10612728 0.15674736 0
0.11450839 0.15519124 0
0.10602531 0.12999722 0
0.13655414 0.10617751 0
0.15386892 0.12554656 0
0.11544952 0.17705558 0
0.12491837 0.17185592 0
0.12875936 0.18361258 0
0.14278614 0.1807396 0
0.13980825 0.16431845 0
0.14329571 0.17216661 0
0.15614714 0.18247806 0
0.16366655 0.16683513 0
0.16326659 0.17627159 0
0.18627246 0.17976588 0
0.19225531 0.17467647 0
0.18323998 0.16488935 0
0.18071594 0.15054163 0
0.16639276 0.15262089 0
0.17325953 0.14955038 0
0.17582425 0.15879804 0
0.1644123 0.13897834 0
0.18243953 0.1371846 0
0.17309213 0.13472684 0
0.17617481 0.19403774 0
0.11792813 0.16264908 0
0.14610605 0.11817794 0
0.16061772 0.11802741 0
0.13449655 0.17594524 0
0.15285277 0.16709998 0
0.17415193 0.17058818 0
0.15836668 0.1713372 0
0.16782597 0.17173813 0
0.11591195 0.10755356 0
0.12635245 0.12457825 0
0.10655325 0.18365521 0
0.18365047 0.10655261 0
0.19347047 0.11631902 0
0.12940332 0.10662225 0
0.16809189 0.16031533 0
0.15831335 0.15843986 0
0.17668868 0.18723073 0
0.15327318 0.11070758 0
0.16881584 0.12491232 0
0.15336398 0.1183051 0
0.13226899 0.16790086 0
0.12573498 0.16353711 0
0.13318136 0.1565476 0
0.17817022 0.17627364 0
0.1219518 0.11813828 0
0.12925999 0.11551196 0
0.11875745 0.12504463 0
0.13558007 0.12253816 0
0.12324927 0.13611838 0
0.13295204 0.1325402 0
0.14797958 0.15797559 0
0.15629678 0.14712147 0
0.1737202 0.12007126 0
0.17787724 0.12724272 0
0.16630049 0.13184716 0
0.1577074 0.13338746 0
0.16138098 0.1261392 0
0.14527323 0.13461456 0
0.15126155 0.13168299 0
0.15256383 0.13979861 0
0.1449432 0.12635843 0
0.14593144 0.14779248 0
0.13959591 0.13070684 0
0.1382413 0.13875287 0
0.12844297 0.14622231 0
0.13106693 0.139503 0
0.1268342 0.13089509 0
0.14656858 0.16459272 0
0.14061336 0.15692078 0
0.16002379 0.15229628 0
0.15140747 0.15198861 0
0.12821444 0.15257708 0
0.1209255 0.19093863 0
0.11517353 0.19383132 0
0.11595743 0.13668278 0
0.12005609 0.14809753 0
0.1371451 0.14747629 0

CELLS 326 1304
3 1 68 2
3 28 27 111
3 2 68 98
3 117 71 61
3 91 114 67
3 78 103 123
3 96 65 77
3 4 81 114
3 91 80 6
3 73 94 63
3 60 81 98
3 89 32 31
3 53 92 54
3 149 104 64
3 81 4 3
3 88 38 37
3 103 78 102
3 56 150 69
3 69 145 57
3 129 110 88
3 56 69 57
3 63 139 73
3 145 68 58
3 0 59 1
3 69 161 60
3 79 126 127
3 39 109 86
3 115 92 82
3 93 71 11
3 37 36 108
3 90 8 7
3 10 9 72
3 13 147 62
3 105 75 85
3 11 71 12
3 62 14 13
3 11 10 93
3 161 163 60
3 83 20 19
3 87 35 127
3 3 2 98
3 16 15 14
3 100 70 84
3 190 16 62
3 100 20 83
3 16 14 62
3 95 77 65
3 90 7 80
3 134 86 110
3 16 190 17
3 62 147 117
3 90 112 8
3 7 6 80
3 163 81 60
3 5 91 6
3 72 112 113
3 118 99 117
3 89 79 32
3 102 22 84
3 110 86 109
3 148 48 47
3 74 49 48
3 94 49 74
3 149 42 85
3 64 46 44
3 94 73 50
3 47 46 64
3 47 64 148
3 109 38 88
3 137 72 113
3 43 64 44
3 85 75 104
3 136 26 77
3 40 86 105
3 23 102 78
3 41 85 42
3 39 86 40
3 60 68 145
3 147 12 71
3 51 50 73
3 41 105 85
3 36 87 108
3 58 68 59
3 45 44 46
3 43 149 64
3 100 84 21
3 77 25 96
3 23 78 24
3 89 28 111
3 150 55 115
3 21 84 22
3 25 24 96
3 119 83 189
3 71 93 61
3 25 77 26
3 1 59 68
3 89 66 79
3 74 148 104
3 115 54 92
3 127 33 79
3 135 170 134
3 79 66 126
3 33 32 79
3 51 73 154
3 18 189 19
3 30 29 31
3 29 28 89
3 153 95 66
3 31 29 89
3 189 62 99
3 111 136 153
3 88 108 76
3 138 82 92
3 146 161 162
3 103 84 120
3 36 35 87
3 34 127 35
3 139 156 154
3 80 192 113
3 9 112 72
3 5 4 114
3 191 91 67
3 52 154 53
3 52 51 154
3 10 72 93
3 61 93 72
3 49 94 50
3 63 94 74
3 65 123 125
3 128 87 107
3 24 78 96
3 65 96 78
3 163 165 191
3 95 65 125
3 60 98 68
3 3 98 81
3 137 118 61
3 83 19 189
3 20 100 21
3 70 100 83
3 101 103 120
3 165 192 191
3 22 102 23
3 103 102 84
3 120 84 70
3 103 101 123
3 106 135 134
3 104 169 74
3 40 105 41
3 75 105 86
3 76 87 128
3 120 122 101
3 126 66 160
3 142 128 107
3 76 108 87
3 37 108 88
3 38 109 39
3 110 109 88
3 129 88 76
3 110 106 134
3 27 26 136
3 66 89 111
3 8 112 9
3 113 112 90
3 80 113 90
3 113 97 137
3 67 114 81
3 5 114 91
3 82 162 150
3 54 115 55
3 155 169 170
3 175 116 172
3 118 117 61
3 62 117 99
3 121 122 157
3 83 119 70
3 99 118 119
3 140 122 120
3 140 70 119
3 157 122 140
3 121 157 159
3 131 106 129
3 70 140 120
3 124 144 143
3 143 101 141
3 78 123 65
3 101 122 141
3 110 129 106
3 143 123 101
3 143 144 125
3 160 66 95
3 127 126 107
3 87 127 107
3 127 34 33
3 142 107 160
3 152 151 124
3 132 76 128
3 132 131 129
3 124 141 152
3 106 131 133
3 129 76 132
3 133 131 130
3 132 128 142
3 130 131 132
3 130 152 186
3 155 135 171
3 135 106 133
3 86 134 75
3 139 155 173
3 169 104 170
3 77 95 153
3 27 136 111
3 137 97 158
3 72 137 61
3 154 138 92
3 183 166 182
3 155 139 63
3 156 139 116
3 119 118 140
3 140 118 157
3 121 184 122
3 152 130 151
3 144 95 125
3 144 151 142
3 143 125 123
3 141 124 143
3 151 144 124
3 95 144 142
3 57 145 58
3 60 145 69
3 138 164 82
3 146 162 164
3 12 147 13
3 117 147 71
3 104 148 64
3 48 148 74
3 42 149 43
3 104 149 85
3 55 150 56
3 82 150 115
3 130 132 151
3 142 151 132
3 184 167 141
3 167 152 141
3 111 153 66
3 77 153 136
3 154 92 53
3 139 154 73
3 169 155 63
3 171 135 133
3 116 138 156
3 154 156 138
3 158 118 137
3 157 158 159
3 158 97 159
3 118 158 157
3 165 181 192
3 152 187 186
3 126 160 107
3 95 142 160
3 162 161 69
3 163 161 146
3 150 162 69
3 162 82 164
3 163 146 183
3 163 67 81
3 177 116 175
3 133 130 186
3 166 146 164
3 188 192 181
3 116 177 138
3 166 180 182
3 159 185 121
3 179 180 166
3 178 174 176
3 172 116 173
3 74 169 63
3 104 75 170
3 134 170 75
3 155 170 135
3 172 171 133
3 173 171 172
3 168 176 133
3 164 177 179
3 139 173 116
3 155 171 173
3 176 175 172
3 178 176 168
3 172 133 176
3 175 174 177
3 178 168 187
3 174 175 176
3 179 177 174
3 164 138 177
3 185 167 184
3 97 188 159
3 180 179 174
3 164 179 166
3 174 178 180
3 193 181 182
3 165 183 182
3 193 180 178
3 193 182 180
3 165 182 181
3 163 183 165
3 146 166 183
3 122 184 141
3 185 184 121
3 193 185 159
3 178 167 185
3 187 152 167
3 133 186 168
3 186 187 168
3 167 178 187
3 192 188 97
3 193 188 181
3 18 17 190
3 119 189 99
3 62 189 190
3 18 190 189
3 91 191 80
3 163 191 67
3 113 192 97
3 192 80 191
3 185 193 178
3 188 193 159

CELL_TYPES 326
5
5
5
5
5
5
5
5
5
5
5
5
5
5
5
5
5
5
5
5
5
5
5
5
5
5
5
5
5
5
5
5
5
5
5
5
5
5
5
5
5
5
5
5
5
5
5
5
5
5
5
5
5
5
5
5
5
5
5
5
5
5
5
5
5
5
5
5
5
5
5
5
5
5
5
5
5
5
5
5
5
5
5
5
5
5
5
5
5
5
5
5
5
5
5
5
5
5
5
5
5
5
5
5
5
5
5
5
5
5
5
5
5
5
5
5
5
5
5
5
5
5
5
5
5
5
5
5
5
5
5
5
5
5
5
5
5
5
5
5
5
5
5
5
5
5
5
5
5
5
5
5
5
5
5
5
5
5
5
5
5
5
5
5
5
5
5
5
5
5
5
5
5
5
5
5
5
5
5
5
5
5
5
5
5
5
5
5
5
5
5
5
5
5
5
5
5
5
5
5
5
5
5
5
5
5
5
5
5
5
5
5
5
5
5
5
5
5
5
5
5
5
5
5
5
5
5
5
5
5
5
5
5
5
5
5
5
5
5
5
5
5
5
5
5
5
5
5
5
5
5
5
5
5
5
5
5
5
5
5
5
5
5
5
5
5
5
5
5
5
5
5
5
5
5
5
5
5
5
5
5
5
5
5
5
5
5
5
5
5
5
5
5
5
5
5
5
5
5
5
5
5
5
5
5
5
5
5
5
5
5
5
5
5
5
5
5
5
5
5
5
5
5
5
5
5
