$MeshFormat
2.2 0 8
$EndMeshFormat
$Nodes
234
1 0.27541826 0.05975763 0.00000000
2 0.25739123 0.06215615 0.00000000
3 0.23892464 0.06456870 0.00000000
4 0.22073762 0.06825100 0.00000000
5 0.20230003 0.07251881 0.00000000
6 0.18338338 0.07707665 0.00000000
7 0.16403883 0.08112029 0.00000000
8 0.14476962 0.08694999 0.00000000
9 0.12552296 0.09501294 0.00000000
10 0.10912290 0.09900730 0.00000000
11 0.09310688 0.10400410 0.00000000
12 0.07826030 0.11182993 0.00000000
13 0.06419470 0.12167325 0.00000000
14 0.05797682 0.13721526 0.00000000
15 0.06031841 0.15432882 0.00000000
16 0.06744947 0.16945536 0.00000000
17 0.07679049 0.18365416 0.00000000
18 0.09156727 0.19737059 0.00000000
19 0.10634789 0.20824216 0.00000000
20 0.11966957 0.21912448 0.00000000
21 0.13348421 0.22940688 0.00000000
22 0.14654132 0.24015344 0.00000000
23 0.15961449 0.24991585 0.00000000
24 0.17253202 0.25995615 0.00000000
25 0.18558191 0.26895750 0.00000000
26 0.19830543 0.27837788 0.00000000
27 0.21112991 0.28701991 0.00000000
28 0.22315950 0.29779461 0.00000000
29 0.23612236 0.30993920 0.00000000
30 0.25176227 0.31577203 0.00000000
31 0.26847857 0.31906429 0.00000000
32 0.28616300 0.31796472 0.00000000
33 0.30180991 0.31209873 0.00000000
34 0.31579186 0.30218554 0.00000000
35 0.32647740 0.28851302 0.00000000
36 0.33892002 0.27074255 0.00000000
37 0.34811348 0.25676013 0.00000000
38 0.35511324 0.23970804 0.00000000
39 0.36175587 0.22264879 0.00000000
40 0.36531994 0.20371291 0.00000000
41 0.36886168 0.18458512 0.00000000
42 0.37033202 0.16496769 0.00000000
43 0.37157350 0.14450040 0.00000000
44 0.37263638 0.12171175 0.00000000
45 0.38080225 0.08773657 0.00000000
46 0.35410548 0.08496347 0.00000000
47 0.33872623 0.07711929 0.00000000
48 0.32433678 0.06934734 0.00000000
49 0.30980162 0.06377504 0.00000000
50 0.29352239 0.05971258 0.00000000
51 0.09278772 0.14848077 0.00000000
52 0.20063006 0.10364853 0.00000000
53 0.22106899 0.25732787 0.00000000
54 0.29442384 0.09061484 0.00000000
55 0.29543975 0.27801859 0.00000000
56 0.08798725 0.16680181 0.00000000
57 0.07501531 0.14356018 0.00000000
58 0.09728821 0.12618263 0.00000000
59 0.13428319 0.19115743 0.00000000
60 0.16394290 0.11225595 0.00000000
61 0.19636748 0.08806702 0.00000000
62 0.23674622 0.09558159 0.00000000
63 0.24552638 0.27465053 0.00000000
64 0.21238871 0.27110186 0.00000000
65 0.19621805 0.24011488 0.00000000
66 0.33608816 0.18954614 0.00000000
67 0.28482900 0.07538861 0.00000000
68 0.31087809 0.08150996 0.00000000
69 0.33148820 0.11533556 0.00000000
70 0.31168558 0.28224279 0.00000000
71 0.29025396 0.29818479 0.00000000
72 0.32381674 0.23710386 0.00000000
73 0.09745166 0.18127006 0.00000000
74 0.07999936 0.12799666 0.00000000
75 0.07657363 0.15764506 0.00000000
76 0.12735025 0.12083142 0.00000000
77 0.12242294 0.20308876 0.00000000
78 0.16071436 0.21067858 0.00000000
79 0.15882961 0.09698312 0.00000000
80 0.21522780 0.08473884 0.00000000
81 0.18031364 0.10040320 0.00000000
82 0.23293486 0.07987721 0.00000000
83 0.23729991 0.29080267 0.00000000
84 0.22884889 0.27486162 0.00000000
85 0.25828916 0.29188972 0.00000000
86 0.20349192 0.25606851 0.00000000
87 0.18695599 0.25325746 0.00000000
88 0.35292542 0.19164073 0.00000000
89 0.34213380 0.15763746 0.00000000
90 0.26658808 0.09576765 0.00000000
91 0.29900351 0.07321858 0.00000000
92 0.31317105 0.10268159 0.00000000
93 0.33547505 0.09568672 0.00000000
94 0.35341195 0.11744562 0.00000000
95 0.30379722 0.29629649 0.00000000
96 0.33897028 0.24291424 0.00000000
97 0.31055747 0.25581558 0.00000000
98 0.11556623 0.16150257 0.00000000
99 0.12213576 0.10774662 0.00000000
100 0.14090586 0.10390660 0.00000000
101 0.11097879 0.11822412 0.00000000
102 0.11493020 0.13712050 0.00000000
103 0.10960889 0.19281662 0.00000000
104 0.11590853 0.17759341 0.00000000
105 0.14935982 0.22361192 0.00000000
106 0.18601314 0.12217693 0.00000000
107 0.27707055 0.28531060 0.00000000
108 0.17576146 0.23618630 0.00000000
109 0.34839838 0.21057415 0.00000000
110 0.35803037 0.15538384 0.00000000
111 0.35589367 0.17391180 0.00000000
112 0.35115104 0.13843132 0.00000000
113 0.25168749 0.08431724 0.00000000
114 0.28035288 0.08875986 0.00000000
115 0.28471574 0.10917902 0.00000000
116 0.26754981 0.07722395 0.00000000
117 0.32576426 0.08425303 0.00000000
118 0.35295897 0.10052387 0.00000000
119 0.10264438 0.16865387 0.00000000
120 0.14102075 0.16818322 0.00000000
121 0.13655304 0.21281675 0.00000000
122 0.27498075 0.30270698 0.00000000
123 0.26504448 0.27003279 0.00000000
124 0.16066780 0.23371533 0.00000000
125 0.34504804 0.22723093 0.00000000
126 0.32813941 0.21585769 0.00000000
127 0.32156084 0.14440570 0.00000000
128 0.33491527 0.12900756 0.00000000
129 0.31608522 0.13013109 0.00000000
130 0.29250316 0.14723080 0.00000000
131 0.21905519 0.10090664 0.00000000
132 0.23796974 0.12593668 0.00000000
133 0.23261767 0.11095793 0.00000000
134 0.25146511 0.10660944 0.00000000
135 0.21171902 0.12566931 0.00000000
136 0.14640504 0.11999763 0.00000000
137 0.16459314 0.13518957 0.00000000
138 0.13658688 0.13788892 0.00000000
139 0.10108091 0.13818589 0.00000000
140 0.10872103 0.14966921 0.00000000
141 0.12468216 0.14797628 0.00000000
142 0.14105807 0.15269609 0.00000000
143 0.15096721 0.14188820 0.00000000
144 0.16999183 0.15981443 0.00000000
145 0.15422486 0.16004086 0.00000000
146 0.16192834 0.18265553 0.00000000
147 0.19206655 0.20981506 0.00000000
148 0.34102016 0.17416590 0.00000000
149 0.31329603 0.17582280 0.00000000
150 0.32686377 0.16869840 0.00000000
151 0.31317632 0.15901249 0.00000000
152 0.29145465 0.16895431 0.00000000
153 0.29762379 0.10412911 0.00000000
154 0.30518862 0.11824182 0.00000000
155 0.30083999 0.13311055 0.00000000
156 0.27479241 0.13113060 0.00000000
157 0.13097577 0.17834569 0.00000000
158 0.14634984 0.18111900 0.00000000
159 0.15177414 0.19668164 0.00000000
160 0.26192903 0.30501067 0.00000000
161 0.25138729 0.23602602 0.00000000
162 0.33654416 0.20394499 0.00000000
163 0.31678709 0.19900821 0.00000000
164 0.18866730 0.22582458 0.00000000
165 0.17349042 0.22039547 0.00000000
166 0.21277832 0.22211798 0.00000000
167 0.17639406 0.20418714 0.00000000
168 0.16645123 0.19518154 0.00000000
169 0.18711252 0.18226196 0.00000000
170 0.18838104 0.19635976 0.00000000
171 0.21278047 0.18707505 0.00000000
172 0.20351017 0.19942310 0.00000000
173 0.22376184 0.20434698 0.00000000
174 0.29941853 0.15787495 0.00000000
175 0.30779975 0.14567496 0.00000000
176 0.26128294 0.15921362 0.00000000
177 0.25376086 0.25552756 0.00000000
178 0.23734856 0.25914801 0.00000000
179 0.28478742 0.23706189 0.00000000
180 0.23155575 0.23947972 0.00000000
181 0.27106878 0.25116483 0.00000000
182 0.26860527 0.23330754 0.00000000
183 0.28925294 0.25763567 0.00000000
184 0.25796475 0.20332788 0.00000000
185 0.25922484 0.22015432 0.00000000
186 0.23952662 0.22079635 0.00000000
187 0.28742883 0.20703049 0.00000000
188 0.27163146 0.20966031 0.00000000
189 0.27558030 0.18695148 0.00000000
190 0.28130631 0.22235297 0.00000000
191 0.30520912 0.22007649 0.00000000
192 0.32266535 0.18609667 0.00000000
193 0.21149344 0.20941522 0.00000000
194 0.27893248 0.15855187 0.00000000
195 0.26972013 0.17247707 0.00000000
196 0.25750179 0.18601409 0.00000000
197 0.27047182 0.14600019 0.00000000
198 0.24826413 0.14344966 0.00000000
199 0.24084123 0.19607592 0.00000000
200 0.24519161 0.20843352 0.00000000
201 0.23596249 0.17114769 0.00000000
202 0.24363777 0.18252307 0.00000000
203 0.22844022 0.18727933 0.00000000
204 0.25114489 0.17013389 0.00000000
205 0.24328785 0.15768817 0.00000000
206 0.21373378 0.15388506 0.00000000
207 0.23049139 0.14700715 0.00000000
208 0.22679466 0.16055960 0.00000000
209 0.21999937 0.17425271 0.00000000
210 0.20218744 0.17270235 0.00000000
211 0.21714822 0.13931940 0.00000000
212 0.19316280 0.14339928 0.00000000
213 0.18697068 0.16542486 0.00000000
214 0.17501799 0.17394173 0.00000000
215 0.21386311 0.24104483 0.00000000
216 0.30157292 0.24000984 0.00000000
217 0.29924734 0.26371999 0.00000000
218 0.27876417 0.26974129 0.00000000
219 0.22619503 0.22636253 0.00000000
220 0.29594940 0.18723581 0.00000000
221 0.31567331 0.21226824 0.00000000
222 0.31806087 0.22532528 0.00000000
223 0.30275570 0.20593376 0.00000000
224 0.25643606 0.12813413 0.00000000
225 0.30976337 0.18821824 0.00000000
226 0.26709563 0.11475216 0.00000000
227 0.32306230 0.26645237 0.00000000
228 0.32638513 0.25191161 0.00000000
229 0.20014972 0.11720626 0.00000000
230 0.17137851 0.12331307 0.00000000
231 0.17942860 0.13440749 0.00000000
232 0.17889577 0.14837452 0.00000000
233 0.28987397 0.12316063 0.00000000
234 0.19919744 0.15699277 0.00000000
$EndNodes
$Elements
416
1 2 0 14 57 15
2 2 0 74 58 139
3 2 0 12 58 74
4 2 0 12 11 58
5 2 0 74 57 14
6 2 0 51 75 57
7 2 0 12 74 13
8 2 0 123 63 177
9 2 0 57 74 51
10 2 0 15 75 16
11 2 0 80 52 61
12 2 0 9 100 99
13 2 0 6 5 61
14 2 0 79 7 81
15 2 0 8 79 100
16 2 0 33 32 71
17 2 0 51 140 119
18 2 0 61 81 6
19 2 0 15 57 75
20 2 0 162 88 109
21 2 0 59 77 103
22 2 0 21 105 22
23 2 0 8 7 79
24 2 0 56 16 75
25 2 0 56 17 16
26 2 0 17 56 73
27 2 0 18 73 103
28 2 0 17 73 18
29 2 0 3 82 4
30 2 0 61 5 80
31 2 0 19 77 20
32 2 0 74 14 13
33 2 0 86 53 64
34 2 0 77 121 20
35 2 0 99 10 9
36 2 0 10 101 11
37 2 0 156 224 226
38 2 0 25 24 87
39 2 0 65 215 86
40 2 0 105 21 121
41 2 0 108 87 24
42 2 0 81 106 230
43 2 0 64 27 26
44 2 0 99 101 10
45 2 0 28 84 83
46 2 0 75 51 56
47 2 0 41 40 88
48 2 0 73 56 119
49 2 0 50 49 91
50 2 0 31 122 32
51 2 0 217 70 55
52 2 0 68 54 91
53 2 0 50 67 1
54 2 0 49 48 68
55 2 0 164 166 65
56 2 0 67 91 54
57 2 0 95 34 33
58 2 0 160 30 85
59 2 0 44 94 45
60 2 0 45 118 46
61 2 0 47 117 48
62 2 0 42 110 43
63 2 0 111 41 88
64 2 0 67 54 114
65 2 0 54 68 92
66 2 0 89 110 111
67 2 0 1 67 116
68 2 0 93 47 46
69 2 0 44 43 112
70 2 0 88 40 109
71 2 0 29 83 85
72 2 0 28 83 29
73 2 0 162 66 88
74 2 0 71 55 95
75 2 0 30 29 85
76 2 0 55 70 95
77 2 0 90 134 113
78 2 0 81 61 52
79 2 0 113 62 82
80 2 0 80 5 4
81 2 0 118 93 46
82 2 0 96 38 37
83 2 0 64 84 27
84 2 0 229 106 52
85 2 0 86 26 25
86 2 0 34 70 35
87 2 0 156 226 233
88 2 0 70 227 35
89 2 0 36 35 227
90 2 0 53 178 84
91 2 0 22 105 124
92 2 0 36 228 37
93 2 0 96 125 38
94 2 0 55 71 107
95 2 0 233 154 155
96 2 0 116 114 90
97 2 0 181 123 177
98 2 0 104 103 73
99 2 0 60 230 136
100 2 0 101 102 58
101 2 0 103 77 19
102 2 0 78 105 121
103 2 0 157 59 104
104 2 0 108 65 87
105 2 0 7 6 81
106 2 0 60 136 100
107 2 0 82 80 4
108 2 0 80 62 131
109 2 0 106 81 52
110 2 0 79 81 60
111 2 0 113 3 2
112 2 0 80 82 62
113 2 0 28 27 84
114 2 0 83 63 85
115 2 0 53 84 64
116 2 0 63 83 84
117 2 0 123 107 85
118 2 0 107 122 85
119 2 0 26 86 64
120 2 0 87 86 25
121 2 0 108 24 23
122 2 0 86 87 65
123 2 0 109 40 39
124 2 0 148 111 88
125 2 0 131 62 133
126 2 0 93 118 69
127 2 0 115 54 153
128 2 0 115 90 114
129 2 0 50 91 67
130 2 0 49 68 91
131 2 0 92 117 93
132 2 0 129 69 128
133 2 0 69 92 93
134 2 0 117 92 68
135 2 0 112 43 110
136 2 0 112 127 128
137 2 0 34 95 70
138 2 0 33 71 95
139 2 0 228 36 227
140 2 0 126 125 72
141 2 0 107 123 218
142 2 0 72 96 228
143 2 0 51 74 139
144 2 0 76 100 136
145 2 0 9 8 100
146 2 0 101 99 76
147 2 0 60 100 79
148 2 0 76 99 100
149 2 0 102 101 76
150 2 0 101 58 11
151 2 0 76 136 138
152 2 0 140 51 139
153 2 0 18 103 19
154 2 0 119 104 73
155 2 0 157 98 120
156 2 0 59 103 104
157 2 0 21 20 121
158 2 0 165 124 78
159 2 0 52 80 131
160 2 0 157 120 158
161 2 0 122 107 71
162 2 0 123 85 63
163 2 0 23 22 124
164 2 0 165 147 164
165 2 0 39 38 125
166 2 0 109 125 126
167 2 0 111 110 42
168 2 0 112 110 89
169 2 0 41 111 42
170 2 0 88 66 148
171 2 0 112 89 127
172 2 0 44 112 94
173 2 0 3 113 82
174 2 0 114 116 67
175 2 0 115 114 54
176 2 0 116 90 113
177 2 0 69 94 128
178 2 0 129 154 69
179 2 0 113 2 116
180 2 0 1 116 2
181 2 0 48 117 68
182 2 0 47 93 117
183 2 0 45 94 118
184 2 0 69 118 94
185 2 0 51 119 56
186 2 0 104 119 98
187 2 0 141 140 102
188 2 0 145 146 158
189 2 0 77 59 121
190 2 0 121 59 159
191 2 0 32 122 71
192 2 0 31 30 160
193 2 0 161 177 178
194 2 0 218 181 183
195 2 0 78 124 105
196 2 0 23 124 108
197 2 0 72 125 96
198 2 0 39 125 109
199 2 0 183 216 217
200 2 0 193 173 166
201 2 0 150 89 148
202 2 0 127 150 151
203 2 0 112 128 94
204 2 0 129 128 127
205 2 0 175 155 129
206 2 0 92 154 153
207 2 0 89 150 127
208 2 0 167 147 165
209 2 0 133 62 134
210 2 0 133 135 131
211 2 0 194 174 152
212 2 0 131 135 229
213 2 0 62 113 134
214 2 0 132 135 133
215 2 0 226 90 115
216 2 0 132 133 134
217 2 0 108 164 65
218 2 0 142 145 120
219 2 0 60 81 230
220 2 0 143 136 137
221 2 0 211 212 135
222 2 0 138 102 76
223 2 0 98 142 120
224 2 0 142 98 141
225 2 0 58 102 139
226 2 0 140 139 102
227 2 0 141 102 138
228 2 0 140 98 119
229 2 0 141 138 142
230 2 0 98 140 141
231 2 0 138 143 142
232 2 0 143 144 145
233 2 0 136 143 138
234 2 0 143 137 144
235 2 0 137 230 231
236 2 0 197 198 224
237 2 0 143 145 142
238 2 0 145 144 214
239 2 0 169 170 168
240 2 0 146 159 158
241 2 0 147 167 170
242 2 0 197 130 194
243 2 0 148 192 150
244 2 0 89 111 148
245 2 0 163 66 162
246 2 0 187 191 190
247 2 0 192 148 66
248 2 0 150 149 151
249 2 0 174 149 152
250 2 0 151 174 175
251 2 0 225 192 163
252 2 0 172 147 170
253 2 0 54 92 153
254 2 0 92 69 154
255 2 0 155 154 129
256 2 0 153 154 233
257 2 0 175 129 127
258 2 0 155 130 156
259 2 0 130 174 194
260 2 0 197 224 156
261 2 0 98 157 104
262 2 0 120 145 158
263 2 0 146 168 159
264 2 0 59 157 158
265 2 0 121 159 78
266 2 0 59 158 159
267 2 0 85 122 160
268 2 0 31 160 122
269 2 0 219 215 166
270 2 0 220 225 223
271 2 0 109 126 162
272 2 0 163 162 126
273 2 0 97 216 72
274 2 0 185 188 190
275 2 0 165 164 108
276 2 0 166 164 147
277 2 0 124 165 108
278 2 0 165 78 167
279 2 0 170 169 172
280 2 0 180 161 178
281 2 0 168 78 159
282 2 0 144 213 214
283 2 0 168 146 214
284 2 0 78 168 167
285 2 0 229 212 106
286 2 0 198 205 207
287 2 0 168 170 167
288 2 0 169 171 172
289 2 0 169 213 210
290 2 0 161 185 182
291 2 0 173 172 171
292 2 0 147 172 193
293 2 0 202 204 196
294 2 0 185 161 186
295 2 0 175 174 130
296 2 0 149 174 151
297 2 0 155 175 130
298 2 0 151 175 127
299 2 0 220 189 152
300 2 0 132 224 198
301 2 0 63 84 178
302 2 0 182 181 177
303 2 0 178 53 180
304 2 0 63 178 177
305 2 0 181 182 179
306 2 0 216 97 217
307 2 0 215 180 53
308 2 0 219 173 186
309 2 0 182 177 161
310 2 0 183 181 179
311 2 0 200 185 186
312 2 0 182 190 179
313 2 0 183 179 216
314 2 0 55 107 218
315 2 0 203 201 202
316 2 0 194 152 195
317 2 0 161 180 186
318 2 0 185 184 188
319 2 0 219 186 180
320 2 0 173 199 200
321 2 0 188 189 187
322 2 0 163 126 221
323 2 0 189 188 184
324 2 0 188 187 190
325 2 0 196 195 189
326 2 0 152 149 220
327 2 0 190 182 185
328 2 0 221 191 223
329 2 0 221 126 222
330 2 0 179 190 191
331 2 0 150 192 149
332 2 0 66 163 192
333 2 0 147 193 166
334 2 0 172 173 193
335 2 0 195 152 189
336 2 0 197 194 176
337 2 0 196 189 184
338 2 0 176 194 195
339 2 0 199 196 184
340 2 0 199 202 196
341 2 0 197 176 198
342 2 0 130 197 156
343 2 0 204 195 196
344 2 0 201 208 205
345 2 0 200 199 184
346 2 0 203 173 171
347 2 0 185 200 184
348 2 0 173 200 186
349 2 0 207 211 132
350 2 0 204 205 176
351 2 0 203 202 199
352 2 0 204 202 201
353 2 0 173 203 199
354 2 0 203 171 209
355 2 0 205 204 201
356 2 0 195 204 176
357 2 0 208 207 205
358 2 0 176 205 198
359 2 0 206 208 209
360 2 0 209 171 210
361 2 0 211 207 206
362 2 0 132 198 207
363 2 0 209 208 201
364 2 0 206 207 208
365 2 0 203 209 201
366 2 0 171 169 210
367 2 0 169 214 213
368 2 0 206 209 210
369 2 0 211 206 212
370 2 0 132 211 135
371 2 0 234 210 213
372 2 0 232 137 231
373 2 0 232 213 144
374 2 0 206 234 212
375 2 0 168 214 169
376 2 0 214 146 145
377 2 0 86 215 53
378 2 0 166 215 65
379 2 0 179 191 216
380 2 0 216 191 222
381 2 0 70 217 97
382 2 0 218 217 55
383 2 0 181 218 123
384 2 0 218 183 217
385 2 0 215 219 180
386 2 0 173 219 166
387 2 0 225 220 149
388 2 0 187 189 220
389 2 0 222 126 72
390 2 0 223 191 187
391 2 0 216 222 72
392 2 0 191 221 222
393 2 0 220 223 187
394 2 0 163 221 223
395 2 0 132 134 224
396 2 0 226 224 134
397 2 0 192 225 149
398 2 0 223 225 163
399 2 0 90 226 134
400 2 0 226 115 233
401 2 0 70 97 227
402 2 0 97 72 228
403 2 0 37 228 96
404 2 0 97 228 227
405 2 0 131 229 52
406 2 0 212 229 135
407 2 0 231 230 106
408 2 0 136 230 137
409 2 0 106 212 231
410 2 0 232 231 212
411 2 0 232 212 234
412 2 0 137 232 144
413 2 0 233 115 153
414 2 0 155 156 233
415 2 0 210 234 206
416 2 0 232 234 213
$EndElements
