# vtk DataFile Version 2.0
pd_stretch_tissue_mesh_init, Created by Gmsh
ASCII
DATASET UNSTRUCTURED_GRID
POINTS 234 double
259.00603081 68.012114 0
241.75522607 70.01946073000001 0
224.63558807 72.34102253 0
208.05925488 75.97424008 0
191.66883908 80.05630191 0
175.21579637 83.98716901 0
158.36647493 86.96133463 0
141.9464878 90.97200494000001 0
125.53769848 95.00970916 0
109.11632738 99.01703829 0
93.09893323999999 103.99965408 0
78.26334781 111.8354082 0
64.19544749000001 121.68841966 0
57.9956098 137.2017781 0
60.32144213 154.32326976 0
67.45026932 169.45167411 0
76.78814281 183.66506145 0
85.92700951 197.95478573 0
97.70761701000001 210.56759891 0
109.27518465 223.28095075 0
122.36099083 235.3485948 0
135.4306736 247.4476126 0
149.08404845 258.13747582 0
162.76058607 268.77141914 0
176.98499298 278.08268901 0
191.23401427 287.33453451 0
206.10658765 295.08099211 0
220.64141547 303.64283958 0
236.11159734 309.94654265 0
251.77419637 315.78570964 0
268.50366214 319.05092478 0
286.18154479 317.97690402 0
301.82498987 312.09151757 0
315.78507383 302.16801387 0
326.46827546 288.52863378 0
334.29241605 273.68823666 0
341.07316062 258.41565185 0
345.06265795 241.98689457 0
349.05435657 225.55904911 0
350.00118137 207.86997564 0
350.99947847 190.20334745 0
349.68488662 172.66591508 0
347.00380139 155.69519598 0
341.95532402 139.7050826 0
336.79631013 123.76075495 0
329.6376406 108.64471179 0
320.00692119 94.55230194000001 0
307.32429188 82.29087756 0
292.66028508 74.04093512999999 0
276.6836088 68.96008399 0
90.70434322 149.25002793 0
190.41066069 111.18844134 0
212.40263329 264.84279356 0
275.6649995 99.82274919 0
291.21339735 282.38238798 0
86.06606523000001 167.39559727 0
74.16658117999999 143.72378685 0
95.66707943 126.82410318 0
126.02866646 196.41816849 0
157.26629342 118.07477725 0
186.64931219 95.4449359 0
222.7881139 103.5428972 0
239.55123297 279.37032637 0
204.99024158 279.07398739 0
186.13897061 248.57794307 0
319.18227176 197.26695618 0
267.00811141 84.08889025000001 0
292.11234185 92.17225752 0
306.42040085 128.89307962 0
308.79945312 285.6928855 0
288.39878853 300.13742246 0
313.94425478 243.12899502 0
94.02012612 182.71170182 0
79.21611394 128.16516146 0
75.58874484 157.83564162 0
123.7270562 123.2396911 0
113.86357776 207.48688492 0
150.2437792 218.33748015 0
153.42858321 102.36290186 0
203.44956478 92.41194847 0
172.29355535 107.1958041 0
219.31157881 87.68141817999999 0
233.51937702 294.17335683 0
222.2558934 280.95334693 0
255.19941399 294.37698821 0
194.4297237 264.52749803 0
177.33962237 262.02031039 0
336.08702683 198.22220173 0
321.13609128 168.47899711 0
249.39169543 104.03004753 0
281.28592479 82.77113361000001 0
291.97180343 113.37495538 0
311.18325497 110.91938478 0
323.39539746 136.90361074 0
302.26020372 298.08586484 0
329.6645221 246.94644532 0
303.87172021 263.50438073 0
111.08604478 164.12548581 0
120.21339046 108.84127082 0
137.17769166 107.43094475 0
108.95423954 119.21678888 0
111.48766243 139.04927072 0
103.23733366 195.66357071 0
110.51470277 180.72897445 0
138.71266104 230.79370253 0
176.90291147 129.38092466 0
273.293874 288.64231318 0
165.34352496 244.56648569 0
334.13789073 215.89075423 0
336.06336998 166.12074074 0
336.73443048 182.17098542 0
326.33785726 152.98267486 0
236.30079833 92.26943854 0
261.77421827 97.21708989 0
265.0853556 117.89413987 0
250.87830816 85.26574354 0
305.71435098 97.40903424 0
321.74503032 121.81739291 0
99.17109243 170.3132378 0
133.80001976 173.21867007 0
126.57197045 218.8376596 0
273.35510511 304.23356117 0
258.9516383 274.80246707 0
149.96862078 241.66226126 0
333.22225622 231.60888834 0
314.78708838 222.64924097 0
301.47734735 153.25878112 0
310.42855391 142.39045866 0
295.73584466 139.40975861 0
274.05609957 156.51237025 0
206.92396519 108.74019614 0
224.0694168 134.26430593 0
219.09625132 119.08429845 0
235.88706345 114.86375687 0
200.29719896 133.64774973 0
141.0680415 124.36749995 0
156.96730493 141.29966387 0
131.23401341 141.6939066 0
98.69415481999999 139.2560544 0
105.29034078 151.49133884 0
119.93454847 151.02107442 0
134.60548563 157.2862942 0
144.185799 147.05409291 0
160.77756722 166.83496242 0
146.30380483 165.86425432 0
151.96789718 189.80070765 0
181.26439747 217.94013674 0
322.18883642 183.01072797 0
295.41319429 184.80903234 0
308.3175667 176.71162802 0
293.96701763 168.17315882 0
274.70832308 178.22813619 0
278.15519771 113.41314893 0
285.10292944 127.6575376 0
280.55509337 142.45844608 0
257.04017427 140.11401468 0
124.05438728 182.85545498 0
137.83311902 187.04357042 0
141.95623346 203.51629845 0
260.52974075 306.20816012 0
241.32548625 243.42366318 0
321.48220429 210.73688756 0
301.3274691 207.24690397 0
178.13863301 234.14413914 0
162.9060169 228.50885155 0
202.01189332 230.34582695 0
165.67664108 212.09249772 0
155.57356902 202.94445022 0
176.31802435 190.18726811 0
177.49248205 204.2951739 0
201.91467827 195.15923149 0
192.59758332 207.46345033 0
212.32762609 212.72389417 0
281.18691262 167.165877 0
287.78463563 155.03653942 0
246.37198413 168.21152811 0
245.61752781 261.65262785 0
229.23744885 265.61499024 0
275.10160807 245.09078301 0
221.65182506 247.09500153 0
262.74578609 257.61974954 0
258.37659155 240.95391689 0
281.99000326 264.24100211 0
245.47286005 211.96188416 0
247.83609856 228.27766075 0
228.43796732 228.91155865 0
273.95403057 216.16560267 0
259.08534953 218.31923841 0
261.19417724 196.05143631 0
269.7579373 230.81743312 0
292.77098791 229.48130242 0
305.69416511 194.0975193 0
200.45947024 217.60671296 0
262.48157231 167.72768369 0
254.83529833 181.57127299 0
244.12734475 194.90992196 0
254.03869637 155.04842996 0
233.87780232 152.12017113 0
228.72463319 204.70436646 0
233.4016053 216.86504546 0
223.66954317 179.74639904 0
230.98779224 191.25505372 0
216.79703527 195.78220036 0
237.56696407 178.99028664 0
229.91014447 166.35322652 0
203.04744368 161.98694824 0
217.91410318 155.33961979 0
215.05594991 168.89560387 0
209.20261864 182.38632827 0
191.43889115 180.7163539 0
205.46658746 147.44912543 0
183.09920768 151.19730474 0
176.29992432 173.35224047 0
164.27331579 181.78269432 0
203.95041361 249.15396673 0
292.45252993 249.66359927 0
293.13676504 269.98915519 0
272.86223344 274.73826826 0
215.48583458 234.43579551 0
280.29845179 196.50179455 0
301.97777538 220.2607598 0
306.31217701 232.55768062 0
288.31488475 215.82504913 0
240.62528311 136.79187065 0
293.08895103 197.42005815 0
249.76361381 123.34128977 0
317.93507023 272.02256242 0
318.85756251 257.17275474 0
189.81434123 124.85661028 0
163.60529058 129.77075096 0
170.6029368 141.47520388 0
169.59194337 155.6667521 0
269.71000942 132.13499725 0
188.53332377 164.98582638 0

CELLS 416 1664
3 13 56 14
3 73 57 138
3 11 57 73
3 11 10 57
3 73 56 13
3 50 74 56
3 11 73 12
3 122 62 176
3 56 73 50
3 14 74 15
3 79 51 60
3 8 99 98
3 5 4 60
3 78 6 80
3 7 78 99
3 32 31 70
3 50 139 118
3 60 80 5
3 14 56 74
3 161 87 108
3 58 76 102
3 20 104 21
3 7 6 78
3 55 15 74
3 55 16 15
3 16 55 72
3 17 72 102
3 16 72 17
3 2 81 3
3 60 4 79
3 18 76 19
3 73 13 12
3 85 52 63
3 76 120 19
3 98 9 8
3 9 100 10
3 155 223 225
3 24 23 86
3 64 214 85
3 104 20 120
3 107 86 23
3 80 105 229
3 63 26 25
3 98 100 9
3 27 83 82
3 74 50 55
3 40 39 87
3 72 55 118
3 49 48 90
3 30 121 31
3 216 69 54
3 67 53 90
3 49 66 0
3 48 47 67
3 163 165 64
3 66 90 53
3 94 33 32
3 159 29 84
3 43 93 44
3 44 117 45
3 46 116 47
3 41 109 42
3 110 40 87
3 66 53 113
3 53 67 91
3 88 109 110
3 0 66 115
3 92 46 45
3 43 42 111
3 87 39 108
3 28 82 84
3 27 82 28
3 161 65 87
3 70 54 94
3 29 28 84
3 54 69 94
3 89 133 112
3 80 60 51
3 112 61 81
3 79 4 3
3 117 92 45
3 95 37 36
3 63 83 26
3 228 105 51
3 85 25 24
3 33 69 34
3 155 225 232
3 69 226 34
3 35 34 226
3 52 177 83
3 21 104 123
3 35 227 36
3 95 124 37
3 54 70 106
3 232 153 154
3 115 113 89
3 180 122 176
3 103 102 72
3 59 229 135
3 100 101 57
3 102 76 18
3 77 104 120
3 156 58 103
3 107 64 86
3 6 5 80
3 59 135 99
3 81 79 3
3 79 61 130
3 105 80 51
3 78 80 59
3 112 2 1
3 79 81 61
3 27 26 83
3 82 62 84
3 52 83 63
3 62 82 83
3 122 106 84
3 106 121 84
3 25 85 63
3 86 85 24
3 107 23 22
3 85 86 64
3 108 39 38
3 147 110 87
3 130 61 132
3 92 117 68
3 114 53 152
3 114 89 113
3 49 90 66
3 48 67 90
3 91 116 92
3 128 68 127
3 68 91 92
3 116 91 67
3 111 42 109
3 111 126 127
3 33 94 69
3 32 70 94
3 227 35 226
3 125 124 71
3 106 122 217
3 71 95 227
3 50 73 138
3 75 99 135
3 8 7 99
3 100 98 75
3 59 99 78
3 75 98 99
3 101 100 75
3 100 57 10
3 75 135 137
3 139 50 138
3 17 102 18
3 118 103 72
3 156 97 119
3 58 102 103
3 20 19 120
3 164 123 77
3 51 79 130
3 156 119 157
3 121 106 70
3 122 84 62
3 22 21 123
3 164 146 163
3 38 37 124
3 108 124 125
3 110 109 41
3 111 109 88
3 40 110 41
3 87 65 147
3 111 88 126
3 43 111 93
3 2 112 81
3 113 115 66
3 114 113 53
3 115 89 112
3 68 93 127
3 128 153 68
3 112 1 115
3 0 115 1
3 47 116 67
3 46 92 116
3 44 93 117
3 68 117 93
3 50 118 55
3 103 118 97
3 140 139 101
3 144 145 157
3 76 58 120
3 120 58 158
3 31 121 70
3 30 29 159
3 160 176 177
3 217 180 182
3 77 123 104
3 22 123 107
3 71 124 95
3 38 124 108
3 182 215 216
3 192 172 165
3 149 88 147
3 126 149 150
3 111 127 93
3 128 127 126
3 174 154 128
3 91 153 152
3 88 149 126
3 166 146 164
3 132 61 133
3 132 134 130
3 193 173 151
3 130 134 228
3 61 112 133
3 131 134 132
3 225 89 114
3 131 132 133
3 107 163 64
3 141 144 119
3 59 80 229
3 142 135 136
3 210 211 134
3 137 101 75
3 97 141 119
3 141 97 140
3 57 101 138
3 139 138 101
3 140 101 137
3 139 97 118
3 140 137 141
3 97 139 140
3 137 142 141
3 142 143 144
3 135 142 137
3 142 136 143
3 136 229 230
3 196 197 223
3 142 144 141
3 144 143 213
3 168 169 167
3 145 158 157
3 146 166 169
3 196 129 193
3 147 191 149
3 88 110 147
3 162 65 161
3 186 190 189
3 191 147 65
3 149 148 150
3 173 148 151
3 150 173 174
3 224 191 162
3 171 146 169
3 53 91 152
3 91 68 153
3 154 153 128
3 152 153 232
3 174 128 126
3 154 129 155
3 129 173 193
3 196 223 155
3 97 156 103
3 119 144 157
3 145 167 158
3 58 156 157
3 120 158 77
3 58 157 158
3 84 121 159
3 30 159 121
3 218 214 165
3 219 224 222
3 108 125 161
3 162 161 125
3 96 215 71
3 184 187 189
3 164 163 107
3 165 163 146
3 123 164 107
3 164 77 166
3 169 168 171
3 179 160 177
3 167 77 158
3 143 212 213
3 167 145 213
3 77 167 166
3 228 211 105
3 197 204 206
3 167 169 166
3 168 170 171
3 168 212 209
3 160 184 181
3 172 171 170
3 146 171 192
3 201 203 195
3 184 160 185
3 174 173 129
3 148 173 150
3 154 174 129
3 150 174 126
3 219 188 151
3 131 223 197
3 62 83 177
3 181 180 176
3 177 52 179
3 62 177 176
3 180 181 178
3 215 96 216
3 214 179 52
3 218 172 185
3 181 176 160
3 182 180 178
3 199 184 185
3 181 189 178
3 182 178 215
3 54 106 217
3 202 200 201
3 193 151 194
3 160 179 185
3 184 183 187
3 218 185 179
3 172 198 199
3 187 188 186
3 162 125 220
3 188 187 183
3 187 186 189
3 195 194 188
3 151 148 219
3 189 181 184
3 220 190 222
3 220 125 221
3 178 189 190
3 149 191 148
3 65 162 191
3 146 192 165
3 171 172 192
3 194 151 188
3 196 193 175
3 195 188 183
3 175 193 194
3 198 195 183
3 198 201 195
3 196 175 197
3 129 196 155
3 203 194 195
3 200 207 204
3 199 198 183
3 202 172 170
3 184 199 183
3 172 199 185
3 206 210 131
3 203 204 175
3 202 201 198
3 203 201 200
3 172 202 198
3 202 170 208
3 204 203 200
3 194 203 175
3 207 206 204
3 175 204 197
3 205 207 208
3 208 170 209
3 210 206 205
3 131 197 206
3 208 207 200
3 205 206 207
3 202 208 200
3 170 168 209
3 168 213 212
3 205 208 209
3 210 205 211
3 131 210 134
3 233 209 212
3 231 136 230
3 231 212 143
3 205 233 211
3 167 213 168
3 213 145 144
3 85 214 52
3 165 214 64
3 178 190 215
3 215 190 221
3 69 216 96
3 217 216 54
3 180 217 122
3 217 182 216
3 214 218 179
3 172 218 165
3 224 219 148
3 186 188 219
3 221 125 71
3 222 190 186
3 215 221 71
3 190 220 221
3 219 222 186
3 162 220 222
3 131 133 223
3 225 223 133
3 191 224 148
3 222 224 162
3 89 225 133
3 225 114 232
3 69 96 226
3 96 71 227
3 36 227 95
3 96 227 226
3 130 228 51
3 211 228 134
3 230 229 105
3 135 229 136
3 105 211 230
3 231 230 211
3 231 211 233
3 136 231 143
3 232 114 152
3 154 155 232
3 209 233 205
3 231 233 212

CELL_TYPES 416
5
5
5
5
5
5
5
5
5
5
5
5
5
5
5
5
5
5
5
5
5
5
5
5
5
5
5
5
5
5
5
5
5
5
5
5
5
5
5
5
5
5
5
5
5
5
5
5
5
5
5
5
5
5
5
5
5
5
5
5
5
5
5
5
5
5
5
5
5
5
5
5
5
5
5
5
5
5
5
5
5
5
5
5
5
5
5
5
5
5
5
5
5
5
5
5
5
5
5
5
5
5
5
5
5
5
5
5
5
5
5
5
5
5
5
5
5
5
5
5
5
5
5
5
5
5
5
5
5
5
5
5
5
5
5
5
5
5
5
5
5
5
5
5
5
5
5
5
5
5
5
5
5
5
5
5
5
5
5
5
5
5
5
5
5
5
5
5
5
5
5
5
5
5
5
5
5
5
5
5
5
5
5
5
5
5
5
5
5
5
5
5
5
5
5
5
5
5
5
5
5
5
5
5
5
5
5
5
5
5
5
5
5
5
5
5
5
5
5
5
5
5
5
5
5
5
5
5
5
5
5
5
5
5
5
5
5
5
5
5
5
5
5
5
5
5
5
5
5
5
5
5
5
5
5
5
5
5
5
5
5
5
5
5
5
5
5
5
5
5
5
5
5
5
5
5
5
5
5
5
5
5
5
5
5
5
5
5
5
5
5
5
5
5
5
5
5
5
5
5
5
5
5
5
5
5
5
5
5
5
5
5
5
5
5
5
5
5
5
5
5
5
5
5
5
5
5
5
5
5
5
5
5
5
5
5
5
5
5
5
5
5
5
5
5
5
5
5
5
5
5
5
5
5
5
5
5
5
5
5
5
5
5
5
5
5
5
5
5
5
5
5
5
5
5
5
5
5
5
5
5
5
5
5
5
5
5
5
5
5
5
5
5
5
5
5
5
5
5
5
5
5
5
5
5
5
5
5
5
5
5
5
5
5
5
5
