$MeshFormat
2.2 0 8
$EndMeshFormat
$Nodes
234
1 259.00603081 68.01211400 0.00000000
2 241.75522607 70.01946073 0.00000000
3 224.63558807 72.34102253 0.00000000
4 208.05925488 75.97424008 0.00000000
5 191.66883908 80.05630191 0.00000000
6 175.21579637 83.98716901 0.00000000
7 158.36647493 86.96133463 0.00000000
8 141.94648780 90.97200494 0.00000000
9 125.53769848 95.00970916 0.00000000
10 109.11632738 99.01703829 0.00000000
11 93.09893324 103.99965408 0.00000000
12 78.26334781 111.83540820 0.00000000
13 64.19544749 121.68841966 0.00000000
14 57.99560980 137.20177810 0.00000000
15 60.32144213 154.32326976 0.00000000
16 67.45026932 169.45167411 0.00000000
17 76.78814281 183.66506145 0.00000000
18 85.92700951 197.95478573 0.00000000
19 97.70761701 210.56759891 0.00000000
20 109.27518465 223.28095075 0.00000000
21 122.36099083 235.34859480 0.00000000
22 135.43067360 247.44761260 0.00000000
23 149.08404845 258.13747582 0.00000000
24 162.76058607 268.77141914 0.00000000
25 176.98499298 278.08268901 0.00000000
26 191.23401427 287.33453451 0.00000000
27 206.10658765 295.08099211 0.00000000
28 220.64141547 303.64283958 0.00000000
29 236.11159734 309.94654265 0.00000000
30 251.77419637 315.78570964 0.00000000
31 268.50366214 319.05092478 0.00000000
32 286.18154479 317.97690402 0.00000000
33 301.82498987 312.09151757 0.00000000
34 315.78507383 302.16801387 0.00000000
35 326.46827546 288.52863378 0.00000000
36 334.29241605 273.68823666 0.00000000
37 341.07316062 258.41565185 0.00000000
38 345.06265795 241.98689457 0.00000000
39 349.05435657 225.55904911 0.00000000
40 350.00118137 207.86997564 0.00000000
41 350.99947847 190.20334745 0.00000000
42 349.68488662 172.66591508 0.00000000
43 347.00380139 155.69519598 0.00000000
44 341.95532402 139.70508260 0.00000000
45 336.79631013 123.76075495 0.00000000
46 329.63764060 108.64471179 0.00000000
47 320.00692119 94.55230194 0.00000000
48 307.32429188 82.29087756 0.00000000
49 292.66028508 74.04093513 0.00000000
50 276.68360880 68.96008399 0.00000000
51 90.70434322 149.25002793 0.00000000
52 190.41066069 111.18844134 0.00000000
53 212.40263329 264.84279356 0.00000000
54 275.66499950 99.82274919 0.00000000
55 291.21339735 282.38238798 0.00000000
56 86.06606523 167.39559727 0.00000000
57 74.16658118 143.72378685 0.00000000
58 95.66707943 126.82410318 0.00000000
59 126.02866646 196.41816849 0.00000000
60 157.26629342 118.07477725 0.00000000
61 186.64931219 95.44493590 0.00000000
62 222.78811390 103.54289720 0.00000000
63 239.55123297 279.37032637 0.00000000
64 204.99024158 279.07398739 0.00000000
65 186.13897061 248.57794307 0.00000000
66 319.18227176 197.26695618 0.00000000
67 267.00811141 84.08889025 0.00000000
68 292.11234185 92.17225752 0.00000000
69 306.42040085 128.89307962 0.00000000
70 308.79945312 285.69288550 0.00000000
71 288.39878853 300.13742246 0.00000000
72 313.94425478 243.12899502 0.00000000
73 94.02012612 182.71170182 0.00000000
74 79.21611394 128.16516146 0.00000000
75 75.58874484 157.83564162 0.00000000
76 123.72705620 123.23969110 0.00000000
77 113.86357776 207.48688492 0.00000000
78 150.24377920 218.33748015 0.00000000
79 153.42858321 102.36290186 0.00000000
80 203.44956478 92.41194847 0.00000000
81 172.29355535 107.19580410 0.00000000
82 219.31157881 87.68141818 0.00000000
83 233.51937702 294.17335683 0.00000000
84 222.25589340 280.95334693 0.00000000
85 255.19941399 294.37698821 0.00000000
86 194.42972370 264.52749803 0.00000000
87 177.33962237 262.02031039 0.00000000
88 336.08702683 198.22220173 0.00000000
89 321.13609128 168.47899711 0.00000000
90 249.39169543 104.03004753 0.00000000
91 281.28592479 82.77113361 0.00000000
92 291.97180343 113.37495538 0.00000000
93 311.18325497 110.91938478 0.00000000
94 323.39539746 136.90361074 0.00000000
95 302.26020372 298.08586484 0.00000000
96 329.66452210 246.94644532 0.00000000
97 303.87172021 263.50438073 0.00000000
98 111.08604478 164.12548581 0.00000000
99 120.21339046 108.84127082 0.00000000
100 137.17769166 107.43094475 0.00000000
101 108.95423954 119.21678888 0.00000000
102 111.48766243 139.04927072 0.00000000
103 103.23733366 195.66357071 0.00000000
104 110.51470277 180.72897445 0.00000000
105 138.71266104 230.79370253 0.00000000
106 176.90291147 129.38092466 0.00000000
107 273.29387400 288.64231318 0.00000000
108 165.34352496 244.56648569 0.00000000
109 334.13789073 215.89075423 0.00000000
110 336.06336998 166.12074074 0.00000000
111 336.73443048 182.17098542 0.00000000
112 326.33785726 152.98267486 0.00000000
113 236.30079833 92.26943854 0.00000000
114 261.77421827 97.21708989 0.00000000
115 265.08535560 117.89413987 0.00000000
116 250.87830816 85.26574354 0.00000000
117 305.71435098 97.40903424 0.00000000
118 321.74503032 121.81739291 0.00000000
119 99.17109243 170.31323780 0.00000000
120 133.80001976 173.21867007 0.00000000
121 126.57197045 218.83765960 0.00000000
122 273.35510511 304.23356117 0.00000000
123 258.95163830 274.80246707 0.00000000
124 149.96862078 241.66226126 0.00000000
125 333.22225622 231.60888834 0.00000000
126 314.78708838 222.64924097 0.00000000
127 301.47734735 153.25878112 0.00000000
128 310.42855391 142.39045866 0.00000000
129 295.73584466 139.40975861 0.00000000
130 274.05609957 156.51237025 0.00000000
131 206.92396519 108.74019614 0.00000000
132 224.06941680 134.26430593 0.00000000
133 219.09625132 119.08429845 0.00000000
134 235.88706345 114.86375687 0.00000000
135 200.29719896 133.64774973 0.00000000
136 141.06804150 124.36749995 0.00000000
137 156.96730493 141.29966387 0.00000000
138 131.23401341 141.69390660 0.00000000
139 98.69415482 139.25605440 0.00000000
140 105.29034078 151.49133884 0.00000000
141 119.93454847 151.02107442 0.00000000
142 134.60548563 157.28629420 0.00000000
143 144.18579900 147.05409291 0.00000000
144 160.77756722 166.83496242 0.00000000
145 146.30380483 165.86425432 0.00000000
146 151.96789718 189.80070765 0.00000000
147 181.26439747 217.94013674 0.00000000
148 322.18883642 183.01072797 0.00000000
149 295.41319429 184.80903234 0.00000000
150 308.31756670 176.71162802 0.00000000
151 293.96701763 168.17315882 0.00000000
152 274.70832308 178.22813619 0.00000000
153 278.15519771 113.41314893 0.00000000
154 285.10292944 127.65753760 0.00000000
155 280.55509337 142.45844608 0.00000000
156 257.04017427 140.11401468 0.00000000
157 124.05438728 182.85545498 0.00000000
158 137.83311902 187.04357042 0.00000000
159 141.95623346 203.51629845 0.00000000
160 260.52974075 306.20816012 0.00000000
161 241.32548625 243.42366318 0.00000000
162 321.48220429 210.73688756 0.00000000
163 301.32746910 207.24690397 0.00000000
164 178.13863301 234.14413914 0.00000000
165 162.90601690 228.50885155 0.00000000
166 202.01189332 230.34582695 0.00000000
167 165.67664108 212.09249772 0.00000000
168 155.57356902 202.94445022 0.00000000
169 176.31802435 190.18726811 0.00000000
170 177.49248205 204.29517390 0.00000000
171 201.91467827 195.15923149 0.00000000
172 192.59758332 207.46345033 0.00000000
173 212.32762609 212.72389417 0.00000000
174 281.18691262 167.16587700 0.00000000
175 287.78463563 155.03653942 0.00000000
176 246.37198413 168.21152811 0.00000000
177 245.61752781 261.65262785 0.00000000
178 229.23744885 265.61499024 0.00000000
179 275.10160807 245.09078301 0.00000000
180 221.65182506 247.09500153 0.00000000
181 262.74578609 257.61974954 0.00000000
182 258.37659155 240.95391689 0.00000000
183 281.99000326 264.24100211 0.00000000
184 245.47286005 211.96188416 0.00000000
185 247.83609856 228.27766075 0.00000000
186 228.43796732 228.91155865 0.00000000
187 273.95403057 216.16560267 0.00000000
188 259.08534953 218.31923841 0.00000000
189 261.19417724 196.05143631 0.00000000
190 269.75793730 230.81743312 0.00000000
191 292.77098791 229.48130242 0.00000000
192 305.69416511 194.09751930 0.00000000
193 200.45947024 217.60671296 0.00000000
194 262.48157231 167.72768369 0.00000000
195 254.83529833 181.57127299 0.00000000
196 244.12734475 194.90992196 0.00000000
197 254.03869637 155.04842996 0.00000000
198 233.87780232 152.12017113 0.00000000
199 228.72463319 204.70436646 0.00000000
200 233.40160530 216.86504546 0.00000000
201 223.66954317 179.74639904 0.00000000
202 230.98779224 191.25505372 0.00000000
203 216.79703527 195.78220036 0.00000000
204 237.56696407 178.99028664 0.00000000
205 229.91014447 166.35322652 0.00000000
206 203.04744368 161.98694824 0.00000000
207 217.91410318 155.33961979 0.00000000
208 215.05594991 168.89560387 0.00000000
209 209.20261864 182.38632827 0.00000000
210 191.43889115 180.71635390 0.00000000
211 205.46658746 147.44912543 0.00000000
212 183.09920768 151.19730474 0.00000000
213 176.29992432 173.35224047 0.00000000
214 164.27331579 181.78269432 0.00000000
215 203.95041361 249.15396673 0.00000000
216 292.45252993 249.66359927 0.00000000
217 293.13676504 269.98915519 0.00000000
218 272.86223344 274.73826826 0.00000000
219 215.48583458 234.43579551 0.00000000
220 280.29845179 196.50179455 0.00000000
221 301.97777538 220.26075980 0.00000000
222 306.31217701 232.55768062 0.00000000
223 288.31488475 215.82504913 0.00000000
224 240.62528311 136.79187065 0.00000000
225 293.08895103 197.42005815 0.00000000
226 249.76361381 123.34128977 0.00000000
227 317.93507023 272.02256242 0.00000000
228 318.85756251 257.17275474 0.00000000
229 189.81434123 124.85661028 0.00000000
230 163.60529058 129.77075096 0.00000000
231 170.60293680 141.47520388 0.00000000
232 169.59194337 155.66675210 0.00000000
233 269.71000942 132.13499725 0.00000000
234 188.53332377 164.98582638 0.00000000
$EndNodes
$Elements
416
1 2 0 14 57 15
2 2 0 74 58 139
3 2 0 12 58 74
4 2 0 12 11 58
5 2 0 74 57 14
6 2 0 51 75 57
7 2 0 12 74 13
8 2 0 123 63 177
9 2 0 57 74 51
10 2 0 15 75 16
11 2 0 80 52 61
12 2 0 9 100 99
13 2 0 6 5 61
14 2 0 79 7 81
15 2 0 8 79 100
16 2 0 33 32 71
17 2 0 51 140 119
18 2 0 61 81 6
19 2 0 15 57 75
20 2 0 162 88 109
21 2 0 59 77 103
22 2 0 21 105 22
23 2 0 8 7 79
24 2 0 56 16 75
25 2 0 56 17 16
26 2 0 17 56 73
27 2 0 18 73 103
28 2 0 17 73 18
29 2 0 3 82 4
30 2 0 61 5 80
31 2 0 19 77 20
32 2 0 74 14 13
33 2 0 86 53 64
34 2 0 77 121 20
35 2 0 99 10 9
36 2 0 10 101 11
37 2 0 156 224 226
38 2 0 25 24 87
39 2 0 65 215 86
40 2 0 105 21 121
41 2 0 108 87 24
42 2 0 81 106 230
43 2 0 64 27 26
44 2 0 99 101 10
45 2 0 28 84 83
46 2 0 75 51 56
47 2 0 41 40 88
48 2 0 73 56 119
49 2 0 50 49 91
50 2 0 31 122 32
51 2 0 217 70 55
52 2 0 68 54 91
53 2 0 50 67 1
54 2 0 49 48 68
55 2 0 164 166 65
56 2 0 67 91 54
57 2 0 95 34 33
58 2 0 160 30 85
59 2 0 44 94 45
60 2 0 45 118 46
61 2 0 47 117 48
62 2 0 42 110 43
63 2 0 111 41 88
64 2 0 67 54 114
65 2 0 54 68 92
66 2 0 89 110 111
67 2 0 1 67 116
68 2 0 93 47 46
69 2 0 44 43 112
70 2 0 88 40 109
71 2 0 29 83 85
72 2 0 28 83 29
73 2 0 162 66 88
74 2 0 71 55 95
75 2 0 30 29 85
76 2 0 55 70 95
77 2 0 90 134 113
78 2 0 81 61 52
79 2 0 113 62 82
80 2 0 80 5 4
81 2 0 118 93 46
82 2 0 96 38 37
83 2 0 64 84 27
84 2 0 229 106 52
85 2 0 86 26 25
86 2 0 34 70 35
87 2 0 156 226 233
88 2 0 70 227 35
89 2 0 36 35 227
90 2 0 53 178 84
91 2 0 22 105 124
92 2 0 36 228 37
93 2 0 96 125 38
94 2 0 55 71 107
95 2 0 233 154 155
96 2 0 116 114 90
97 2 0 181 123 177
98 2 0 104 103 73
99 2 0 60 230 136
100 2 0 101 102 58
101 2 0 103 77 19
102 2 0 78 105 121
103 2 0 157 59 104
104 2 0 108 65 87
105 2 0 7 6 81
106 2 0 60 136 100
107 2 0 82 80 4
108 2 0 80 62 131
109 2 0 106 81 52
110 2 0 79 81 60
111 2 0 113 3 2
112 2 0 80 82 62
113 2 0 28 27 84
114 2 0 83 63 85
115 2 0 53 84 64
116 2 0 63 83 84
117 2 0 123 107 85
118 2 0 107 122 85
119 2 0 26 86 64
120 2 0 87 86 25
121 2 0 108 24 23
122 2 0 86 87 65
123 2 0 109 40 39
124 2 0 148 111 88
125 2 0 131 62 133
126 2 0 93 118 69
127 2 0 115 54 153
128 2 0 115 90 114
129 2 0 50 91 67
130 2 0 49 68 91
131 2 0 92 117 93
132 2 0 129 69 128
133 2 0 69 92 93
134 2 0 117 92 68
135 2 0 112 43 110
136 2 0 112 127 128
137 2 0 34 95 70
138 2 0 33 71 95
139 2 0 228 36 227
140 2 0 126 125 72
141 2 0 107 123 218
142 2 0 72 96 228
143 2 0 51 74 139
144 2 0 76 100 136
145 2 0 9 8 100
146 2 0 101 99 76
147 2 0 60 100 79
148 2 0 76 99 100
149 2 0 102 101 76
150 2 0 101 58 11
151 2 0 76 136 138
152 2 0 140 51 139
153 2 0 18 103 19
154 2 0 119 104 73
155 2 0 157 98 120
156 2 0 59 103 104
157 2 0 21 20 121
158 2 0 165 124 78
159 2 0 52 80 131
160 2 0 157 120 158
161 2 0 122 107 71
162 2 0 123 85 63
163 2 0 23 22 124
164 2 0 165 147 164
165 2 0 39 38 125
166 2 0 109 125 126
167 2 0 111 110 42
168 2 0 112 110 89
169 2 0 41 111 42
170 2 0 88 66 148
171 2 0 112 89 127
172 2 0 44 112 94
173 2 0 3 113 82
174 2 0 114 116 67
175 2 0 115 114 54
176 2 0 116 90 113
177 2 0 69 94 128
178 2 0 129 154 69
179 2 0 113 2 116
180 2 0 1 116 2
181 2 0 48 117 68
182 2 0 47 93 117
183 2 0 45 94 118
184 2 0 69 118 94
185 2 0 51 119 56
186 2 0 104 119 98
187 2 0 141 140 102
188 2 0 145 146 158
189 2 0 77 59 121
190 2 0 121 59 159
191 2 0 32 122 71
192 2 0 31 30 160
193 2 0 161 177 178
194 2 0 218 181 183
195 2 0 78 124 105
196 2 0 23 124 108
197 2 0 72 125 96
198 2 0 39 125 109
199 2 0 183 216 217
200 2 0 193 173 166
201 2 0 150 89 148
202 2 0 127 150 151
203 2 0 112 128 94
204 2 0 129 128 127
205 2 0 175 155 129
206 2 0 92 154 153
207 2 0 89 150 127
208 2 0 167 147 165
209 2 0 133 62 134
210 2 0 133 135 131
211 2 0 194 174 152
212 2 0 131 135 229
213 2 0 62 113 134
214 2 0 132 135 133
215 2 0 226 90 115
216 2 0 132 133 134
217 2 0 108 164 65
218 2 0 142 145 120
219 2 0 60 81 230
220 2 0 143 136 137
221 2 0 211 212 135
222 2 0 138 102 76
223 2 0 98 142 120
224 2 0 142 98 141
225 2 0 58 102 139
226 2 0 140 139 102
227 2 0 141 102 138
228 2 0 140 98 119
229 2 0 141 138 142
230 2 0 98 140 141
231 2 0 138 143 142
232 2 0 143 144 145
233 2 0 136 143 138
234 2 0 143 137 144
235 2 0 137 230 231
236 2 0 197 198 224
237 2 0 143 145 142
238 2 0 145 144 214
239 2 0 169 170 168
240 2 0 146 159 158
241 2 0 147 167 170
242 2 0 197 130 194
243 2 0 148 192 150
244 2 0 89 111 148
245 2 0 163 66 162
246 2 0 187 191 190
247 2 0 192 148 66
248 2 0 150 149 151
249 2 0 174 149 152
250 2 0 151 174 175
251 2 0 225 192 163
252 2 0 172 147 170
253 2 0 54 92 153
254 2 0 92 69 154
255 2 0 155 154 129
256 2 0 153 154 233
257 2 0 175 129 127
258 2 0 155 130 156
259 2 0 130 174 194
260 2 0 197 224 156
261 2 0 98 157 104
262 2 0 120 145 158
263 2 0 146 168 159
264 2 0 59 157 158
265 2 0 121 159 78
266 2 0 59 158 159
267 2 0 85 122 160
268 2 0 31 160 122
269 2 0 219 215 166
270 2 0 220 225 223
271 2 0 109 126 162
272 2 0 163 162 126
273 2 0 97 216 72
274 2 0 185 188 190
275 2 0 165 164 108
276 2 0 166 164 147
277 2 0 124 165 108
278 2 0 165 78 167
279 2 0 170 169 172
280 2 0 180 161 178
281 2 0 168 78 159
282 2 0 144 213 214
283 2 0 168 146 214
284 2 0 78 168 167
285 2 0 229 212 106
286 2 0 198 205 207
287 2 0 168 170 167
288 2 0 169 171 172
289 2 0 169 213 210
290 2 0 161 185 182
291 2 0 173 172 171
292 2 0 147 172 193
293 2 0 202 204 196
294 2 0 185 161 186
295 2 0 175 174 130
296 2 0 149 174 151
297 2 0 155 175 130
298 2 0 151 175 127
299 2 0 220 189 152
300 2 0 132 224 198
301 2 0 63 84 178
302 2 0 182 181 177
303 2 0 178 53 180
304 2 0 63 178 177
305 2 0 181 182 179
306 2 0 216 97 217
307 2 0 215 180 53
308 2 0 219 173 186
309 2 0 182 177 161
310 2 0 183 181 179
311 2 0 200 185 186
312 2 0 182 190 179
313 2 0 183 179 216
314 2 0 55 107 218
315 2 0 203 201 202
316 2 0 194 152 195
317 2 0 161 180 186
318 2 0 185 184 188
319 2 0 219 186 180
320 2 0 173 199 200
321 2 0 188 189 187
322 2 0 163 126 221
323 2 0 189 188 184
324 2 0 188 187 190
325 2 0 196 195 189
326 2 0 152 149 220
327 2 0 190 182 185
328 2 0 221 191 223
329 2 0 221 126 222
330 2 0 179 190 191
331 2 0 150 192 149
332 2 0 66 163 192
333 2 0 147 193 166
334 2 0 172 173 193
335 2 0 195 152 189
336 2 0 197 194 176
337 2 0 196 189 184
338 2 0 176 194 195
339 2 0 199 196 184
340 2 0 199 202 196
341 2 0 197 176 198
342 2 0 130 197 156
343 2 0 204 195 196
344 2 0 201 208 205
345 2 0 200 199 184
346 2 0 203 173 171
347 2 0 185 200 184
348 2 0 173 200 186
349 2 0 207 211 132
350 2 0 204 205 176
351 2 0 203 202 199
352 2 0 204 202 201
353 2 0 173 203 199
354 2 0 203 171 209
355 2 0 205 204 201
356 2 0 195 204 176
357 2 0 208 207 205
358 2 0 176 205 198
359 2 0 206 208 209
360 2 0 209 171 210
361 2 0 211 207 206
362 2 0 132 198 207
363 2 0 209 208 201
364 2 0 206 207 208
365 2 0 203 209 201
366 2 0 171 169 210
367 2 0 169 214 213
368 2 0 206 209 210
369 2 0 211 206 212
370 2 0 132 211 135
371 2 0 234 210 213
372 2 0 232 137 231
373 2 0 232 213 144
374 2 0 206 234 212
375 2 0 168 214 169
376 2 0 214 146 145
377 2 0 86 215 53
378 2 0 166 215 65
379 2 0 179 191 216
380 2 0 216 191 222
381 2 0 70 217 97
382 2 0 218 217 55
383 2 0 181 218 123
384 2 0 218 183 217
385 2 0 215 219 180
386 2 0 173 219 166
387 2 0 225 220 149
388 2 0 187 189 220
389 2 0 222 126 72
390 2 0 223 191 187
391 2 0 216 222 72
392 2 0 191 221 222
393 2 0 220 223 187
394 2 0 163 221 223
395 2 0 132 134 224
396 2 0 226 224 134
397 2 0 192 225 149
398 2 0 223 225 163
399 2 0 90 226 134
400 2 0 226 115 233
401 2 0 70 97 227
402 2 0 97 72 228
403 2 0 37 228 96
404 2 0 97 228 227
405 2 0 131 229 52
406 2 0 212 229 135
407 2 0 231 230 106
408 2 0 136 230 137
409 2 0 106 212 231
410 2 0 232 231 212
411 2 0 232 212 234
412 2 0 137 232 144
413 2 0 233 115 153
414 2 0 155 156 233
415 2 0 210 234 206
416 2 0 232 234 213
$EndElements
