$MeshFormat
2.2 0 8
$EndMeshFormat
$Nodes
194
1 0.10024390 0.10024119 0.00000000
2 0.10140845 0.10934276 0.00000000
3 0.10314069 0.11808540 0.00000000
4 0.10506159 0.12647918 0.00000000
5 0.10702431 0.13450098 0.00000000
6 0.10902620 0.14225596 0.00000000
7 0.11102750 0.14970567 0.00000000
8 0.11302372 0.15693680 0.00000000
9 0.11501768 0.16379215 0.00000000
10 0.11694383 0.16991467 0.00000000
11 0.11727384 0.17656568 0.00000000
12 0.11753489 0.18306640 0.00000000
13 0.11776011 0.18962670 0.00000000
14 0.11791089 0.19626156 0.00000000
15 0.11809727 0.20292325 0.00000000
16 0.11849520 0.20936265 0.00000000
17 0.12496000 0.20935652 0.00000000
18 0.13160037 0.20914612 0.00000000
19 0.13818721 0.20891493 0.00000000
20 0.14478577 0.20870804 0.00000000
21 0.15133050 0.20853883 0.00000000
22 0.15784485 0.20843791 0.00000000
23 0.16435721 0.20841927 0.00000000
24 0.17087380 0.20847955 0.00000000
25 0.17739197 0.20865514 0.00000000
26 0.18389288 0.20896875 0.00000000
27 0.19056584 0.20934738 0.00000000
28 0.19926548 0.21408940 0.00000000
29 0.20966439 0.21923351 0.00000000
30 0.22234695 0.22674501 0.00000000
31 0.23981911 0.23981088 0.00000000
32 0.23041444 0.21946287 0.00000000
33 0.22606121 0.20583289 0.00000000
34 0.22298211 0.19420574 0.00000000
35 0.22057986 0.18399838 0.00000000
36 0.21860787 0.17462928 0.00000000
37 0.21665083 0.16569112 0.00000000
38 0.21464505 0.15713615 0.00000000
39 0.21265444 0.14889815 0.00000000
40 0.21061156 0.14095094 0.00000000
41 0.20863760 0.13328592 0.00000000
42 0.20660834 0.12591788 0.00000000
43 0.20471389 0.11876881 0.00000000
44 0.20285562 0.11207444 0.00000000
45 0.20118997 0.10573304 0.00000000
46 0.19980435 0.10019614 0.00000000
47 0.19332444 0.09999349 0.00000000
48 0.18664961 0.09999995 0.00000000
49 0.18000115 0.10002166 0.00000000
50 0.17332658 0.10001361 0.00000000
51 0.16665909 0.09999597 0.00000000
52 0.15999945 0.09999530 0.00000000
53 0.15332503 0.09998966 0.00000000
54 0.14667884 0.09999848 0.00000000
55 0.14000278 0.10000569 0.00000000
56 0.13332309 0.09999320 0.00000000
57 0.12667035 0.09998300 0.00000000
58 0.12001650 0.09999780 0.00000000
59 0.11332067 0.09997956 0.00000000
60 0.10670073 0.10002828 0.00000000
61 0.11825013 0.12026825 0.00000000
62 0.13169712 0.17916066 0.00000000
63 0.12798279 0.19928471 0.00000000
64 0.17356434 0.11575770 0.00000000
65 0.19215694 0.11018120 0.00000000
66 0.18114972 0.19447185 0.00000000
67 0.20541351 0.20018243 0.00000000
68 0.12074471 0.13605235 0.00000000
69 0.11049786 0.11272934 0.00000000
70 0.12577788 0.11235704 0.00000000
71 0.15442730 0.19420113 0.00000000
72 0.12594930 0.18604997 0.00000000
73 0.12540937 0.17279547 0.00000000
74 0.16538344 0.10925226 0.00000000
75 0.17858893 0.10904598 0.00000000
76 0.19358655 0.13209995 0.00000000
77 0.20141100 0.16328559 0.00000000
78 0.18763096 0.20082078 0.00000000
79 0.17428071 0.20023027 0.00000000
80 0.21526583 0.19931466 0.00000000
81 0.12459966 0.15092988 0.00000000
82 0.11365129 0.12902040 0.00000000
83 0.13987130 0.11506250 0.00000000
84 0.14788889 0.20031221 0.00000000
85 0.16107950 0.20010055 0.00000000
86 0.19752294 0.12398775 0.00000000
87 0.20148778 0.13881814 0.00000000
88 0.20937820 0.17131949 0.00000000
89 0.20549027 0.15455630 0.00000000
90 0.21541627 0.21187054 0.00000000
91 0.12158941 0.15889756 0.00000000
92 0.11757874 0.14442272 0.00000000
93 0.14522372 0.10891877 0.00000000
94 0.12360980 0.17954870 0.00000000
95 0.17147514 0.10679117 0.00000000
96 0.19307504 0.19186817 0.00000000
97 0.18088186 0.20264342 0.00000000
98 0.13814713 0.16418486 0.00000000
99 0.11009327 0.12113301 0.00000000
100 0.13850593 0.19074301 0.00000000
101 0.15452195 0.20232488 0.00000000
102 0.16775389 0.18589830 0.00000000
103 0.16765227 0.20228123 0.00000000
104 0.16667055 0.19406832 0.00000000
105 0.18545057 0.12097519 0.00000000
106 0.20162353 0.13088571 0.00000000
107 0.18931736 0.14798882 0.00000000
108 0.20453191 0.18451052 0.00000000
109 0.20957273 0.16249499 0.00000000
110 0.20561643 0.14617330 0.00000000
111 0.19784057 0.14854416 0.00000000
112 0.20475357 0.20879959 0.00000000
113 0.12190465 0.16609280 0.00000000
114 0.12968990 0.16374939 0.00000000
115 0.11390155 0.13712635 0.00000000
116 0.13805980 0.10709919 0.00000000
117 0.16050004 0.12868529 0.00000000
118 0.13309096 0.18615342 0.00000000
119 0.14243246 0.18058844 0.00000000
120 0.14653627 0.19225882 0.00000000
121 0.16050635 0.18912380 0.00000000
122 0.15615242 0.17205914 0.00000000
123 0.16090359 0.18052393 0.00000000
124 0.17393926 0.19099174 0.00000000
125 0.18071528 0.17472004 0.00000000
126 0.18142113 0.18491583 0.00000000
127 0.20794731 0.19316517 0.00000000
128 0.21313186 0.18662163 0.00000000
129 0.20106926 0.17359246 0.00000000
130 0.19463179 0.15622168 0.00000000
131 0.18052968 0.15884660 0.00000000
132 0.18675376 0.15528816 0.00000000
133 0.19182911 0.16607790 0.00000000
134 0.17484320 0.14349967 0.00000000
135 0.19247378 0.14058461 0.00000000
136 0.18238675 0.13841285 0.00000000
137 0.19561642 0.20590813 0.00000000
138 0.13504372 0.17165238 0.00000000
139 0.15068864 0.12055034 0.00000000
140 0.16520335 0.12013331 0.00000000
141 0.15211434 0.18443548 0.00000000
142 0.16960084 0.17469709 0.00000000
143 0.19271262 0.17990541 0.00000000
144 0.17581129 0.17937910 0.00000000
145 0.18597741 0.18049862 0.00000000
146 0.11760364 0.10922756 0.00000000
147 0.13254253 0.12853742 0.00000000
148 0.12437758 0.19307559 0.00000000
149 0.18508826 0.10692194 0.00000000
150 0.19729361 0.11629915 0.00000000
151 0.13093768 0.10774589 0.00000000
152 0.18412105 0.16761867 0.00000000
153 0.17356233 0.16528299 0.00000000
154 0.19688378 0.19936593 0.00000000
155 0.15592670 0.11205648 0.00000000
156 0.17529374 0.12763620 0.00000000
157 0.15801810 0.12055442 0.00000000
158 0.14965302 0.17641023 0.00000000
159 0.14291777 0.17224237 0.00000000
160 0.14803922 0.16381003 0.00000000
161 0.19806447 0.18720332 0.00000000
162 0.12635932 0.12141338 0.00000000
163 0.13300918 0.11799506 0.00000000
164 0.12506163 0.12964303 0.00000000
165 0.14126175 0.12576720 0.00000000
166 0.13269591 0.14183457 0.00000000
167 0.14137924 0.13715284 0.00000000
168 0.16295078 0.16479718 0.00000000
169 0.16876639 0.15271574 0.00000000
170 0.17884236 0.12204613 0.00000000
171 0.18501330 0.12977724 0.00000000
172 0.17474688 0.13543544 0.00000000
173 0.16650546 0.13738832 0.00000000
174 0.16819842 0.12918739 0.00000000
175 0.15430588 0.13902543 0.00000000
176 0.15954354 0.13559248 0.00000000
177 0.16306397 0.14462856 0.00000000
178 0.15171878 0.12978860 0.00000000
179 0.15845090 0.15360595 0.00000000
180 0.14753172 0.13482457 0.00000000
181 0.14835546 0.14385656 0.00000000
182 0.14069357 0.15271505 0.00000000
183 0.14140594 0.14505163 0.00000000
184 0.13477493 0.13566056 0.00000000
185 0.16286971 0.17210456 0.00000000
186 0.15536620 0.16387787 0.00000000
187 0.17389398 0.15845363 0.00000000
188 0.16503298 0.15816911 0.00000000
189 0.14220560 0.15974839 0.00000000
190 0.13887550 0.19981554 0.00000000
191 0.13324096 0.20292219 0.00000000
192 0.12564760 0.14318556 0.00000000
193 0.13301055 0.15543041 0.00000000
194 0.14961915 0.15357910 0.00000000
$EndNodes
$Elements
326
1 2 0 2 69 3
2 2 0 29 28 112
3 2 0 3 69 99
4 2 0 118 72 62
5 2 0 92 115 68
6 2 0 79 104 124
7 2 0 97 66 78
8 2 0 5 82 115
9 2 0 92 81 7
10 2 0 74 95 64
11 2 0 61 82 99
12 2 0 90 33 32
13 2 0 54 93 55
14 2 0 150 105 65
15 2 0 82 5 4
16 2 0 89 39 38
17 2 0 104 79 103
18 2 0 57 151 70
19 2 0 70 146 58
20 2 0 130 111 89
21 2 0 57 70 58
22 2 0 64 140 74
23 2 0 146 69 59
24 2 0 1 60 2
25 2 0 70 162 61
26 2 0 80 127 128
27 2 0 40 110 87
28 2 0 116 93 83
29 2 0 94 72 12
30 2 0 38 37 109
31 2 0 91 9 8
32 2 0 11 10 73
33 2 0 14 148 63
34 2 0 106 76 86
35 2 0 12 72 13
36 2 0 63 15 14
37 2 0 12 11 94
38 2 0 162 164 61
39 2 0 84 21 20
40 2 0 88 36 128
41 2 0 4 3 99
42 2 0 17 16 15
43 2 0 101 71 85
44 2 0 191 17 63
45 2 0 101 21 84
46 2 0 17 15 63
47 2 0 96 78 66
48 2 0 91 8 81
49 2 0 135 87 111
50 2 0 17 191 18
51 2 0 63 148 118
52 2 0 91 113 9
53 2 0 8 7 81
54 2 0 164 82 61
55 2 0 6 92 7
56 2 0 73 113 114
57 2 0 119 100 118
58 2 0 90 80 33
59 2 0 103 23 85
60 2 0 111 87 110
61 2 0 149 49 48
62 2 0 75 50 49
63 2 0 95 50 75
64 2 0 150 43 86
65 2 0 65 47 45
66 2 0 95 74 51
67 2 0 48 47 65
68 2 0 48 65 149
69 2 0 110 39 89
70 2 0 138 73 114
71 2 0 44 65 45
72 2 0 86 76 105
73 2 0 137 27 78
74 2 0 41 87 106
75 2 0 24 103 79
76 2 0 42 86 43
77 2 0 40 87 41
78 2 0 61 69 146
79 2 0 148 13 72
80 2 0 52 51 74
81 2 0 42 106 86
82 2 0 37 88 109
83 2 0 59 69 60
84 2 0 46 45 47
85 2 0 44 150 65
86 2 0 101 85 22
87 2 0 78 26 97
88 2 0 24 79 25
89 2 0 90 29 112
90 2 0 151 56 116
91 2 0 22 85 23
92 2 0 26 25 97
93 2 0 120 84 190
94 2 0 72 94 62
95 2 0 26 78 27
96 2 0 2 60 69
97 2 0 90 67 80
98 2 0 75 149 105
99 2 0 116 55 93
100 2 0 128 34 80
101 2 0 136 171 135
102 2 0 80 67 127
103 2 0 34 33 80
104 2 0 52 74 155
105 2 0 19 190 20
106 2 0 31 30 32
107 2 0 30 29 90
108 2 0 154 96 67
109 2 0 32 30 90
110 2 0 190 63 100
111 2 0 112 137 154
112 2 0 89 109 77
113 2 0 139 83 93
114 2 0 147 162 163
115 2 0 104 85 121
116 2 0 37 36 88
117 2 0 35 128 36
118 2 0 140 157 155
119 2 0 81 193 114
120 2 0 10 113 73
121 2 0 6 5 115
122 2 0 192 92 68
123 2 0 53 155 54
124 2 0 53 52 155
125 2 0 11 73 94
126 2 0 62 94 73
127 2 0 50 95 51
128 2 0 64 95 75
129 2 0 66 124 126
130 2 0 129 88 108
131 2 0 25 79 97
132 2 0 66 97 79
133 2 0 164 166 192
134 2 0 96 66 126
135 2 0 61 99 69
136 2 0 4 99 82
137 2 0 138 119 62
138 2 0 84 20 190
139 2 0 21 101 22
140 2 0 71 101 84
141 2 0 102 104 121
142 2 0 166 193 192
143 2 0 23 103 24
144 2 0 104 103 85
145 2 0 121 85 71
146 2 0 104 102 124
147 2 0 107 136 135
148 2 0 105 170 75
149 2 0 41 106 42
150 2 0 76 106 87
151 2 0 77 88 129
152 2 0 121 123 102
153 2 0 127 67 161
154 2 0 143 129 108
155 2 0 77 109 88
156 2 0 38 109 89
157 2 0 39 110 40
158 2 0 111 110 89
159 2 0 130 89 77
160 2 0 111 107 135
161 2 0 28 27 137
162 2 0 67 90 112
163 2 0 9 113 10
164 2 0 114 113 91
165 2 0 81 114 91
166 2 0 114 98 138
167 2 0 68 115 82
168 2 0 6 115 92
169 2 0 83 163 151
170 2 0 55 116 56
171 2 0 156 170 171
172 2 0 176 117 173
173 2 0 119 118 62
174 2 0 63 118 100
175 2 0 122 123 158
176 2 0 84 120 71
177 2 0 100 119 120
178 2 0 141 123 121
179 2 0 141 71 120
180 2 0 158 123 141
181 2 0 122 158 160
182 2 0 132 107 130
183 2 0 71 141 121
184 2 0 125 145 144
185 2 0 144 102 142
186 2 0 79 124 66
187 2 0 102 123 142
188 2 0 111 130 107
189 2 0 144 124 102
190 2 0 144 145 126
191 2 0 161 67 96
192 2 0 128 127 108
193 2 0 88 128 108
194 2 0 128 35 34
195 2 0 143 108 161
196 2 0 153 152 125
197 2 0 133 77 129
198 2 0 133 132 130
199 2 0 125 142 153
200 2 0 107 132 134
201 2 0 130 77 133
202 2 0 134 132 131
203 2 0 133 129 143
204 2 0 131 132 133
205 2 0 131 153 187
206 2 0 156 136 172
207 2 0 136 107 134
208 2 0 87 135 76
209 2 0 140 156 174
210 2 0 170 105 171
211 2 0 78 96 154
212 2 0 28 137 112
213 2 0 138 98 159
214 2 0 73 138 62
215 2 0 155 139 93
216 2 0 184 167 183
217 2 0 156 140 64
218 2 0 157 140 117
219 2 0 120 119 141
220 2 0 141 119 158
221 2 0 122 185 123
222 2 0 153 131 152
223 2 0 145 96 126
224 2 0 145 152 143
225 2 0 144 126 124
226 2 0 142 125 144
227 2 0 152 145 125
228 2 0 96 145 143
229 2 0 58 146 59
230 2 0 61 146 70
231 2 0 139 165 83
232 2 0 147 163 165
233 2 0 13 148 14
234 2 0 118 148 72
235 2 0 105 149 65
236 2 0 49 149 75
237 2 0 43 150 44
238 2 0 105 150 86
239 2 0 56 151 57
240 2 0 83 151 116
241 2 0 131 133 152
242 2 0 143 152 133
243 2 0 185 168 142
244 2 0 168 153 142
245 2 0 112 154 67
246 2 0 78 154 137
247 2 0 155 93 54
248 2 0 140 155 74
249 2 0 170 156 64
250 2 0 172 136 134
251 2 0 117 139 157
252 2 0 155 157 139
253 2 0 159 119 138
254 2 0 158 159 160
255 2 0 159 98 160
256 2 0 119 159 158
257 2 0 166 182 193
258 2 0 153 188 187
259 2 0 127 161 108
260 2 0 96 143 161
261 2 0 163 162 70
262 2 0 164 162 147
263 2 0 151 163 70
264 2 0 163 83 165
265 2 0 164 147 184
266 2 0 164 68 82
267 2 0 178 117 176
268 2 0 134 131 187
269 2 0 167 147 165
270 2 0 189 193 182
271 2 0 117 178 139
272 2 0 167 181 183
273 2 0 160 186 122
274 2 0 180 181 167
275 2 0 179 175 177
276 2 0 173 117 174
277 2 0 75 170 64
278 2 0 105 76 171
279 2 0 135 171 76
280 2 0 156 171 136
281 2 0 173 172 134
282 2 0 174 172 173
283 2 0 169 177 134
284 2 0 165 178 180
285 2 0 140 174 117
286 2 0 156 172 174
287 2 0 177 176 173
288 2 0 179 177 169
289 2 0 173 134 177
290 2 0 176 175 178
291 2 0 179 169 188
292 2 0 175 176 177
293 2 0 180 178 175
294 2 0 165 139 178
295 2 0 186 168 185
296 2 0 98 189 160
297 2 0 181 180 175
298 2 0 165 180 167
299 2 0 175 179 181
300 2 0 194 182 183
301 2 0 166 184 183
302 2 0 194 181 179
303 2 0 194 183 181
304 2 0 166 183 182
305 2 0 164 184 166
306 2 0 147 167 184
307 2 0 123 185 142
308 2 0 186 185 122
309 2 0 194 186 160
310 2 0 179 168 186
311 2 0 188 153 168
312 2 0 134 187 169
313 2 0 187 188 169
314 2 0 168 179 188
315 2 0 193 189 98
316 2 0 194 189 182
317 2 0 19 18 191
318 2 0 120 190 100
319 2 0 63 190 191
320 2 0 19 191 190
321 2 0 92 192 81
322 2 0 164 192 68
323 2 0 114 193 98
324 2 0 193 81 192
325 2 0 186 194 179
326 2 0 189 194 160
$EndElements
